HIERARCHY
ROOT hip
{
	OFFSET 0.000000 0.000000 0.000000 
	CHANNELS 6 Xposition Yposition Zposition Xrotation Zrotation Yrotation
	JOINT abdomen
	{
		OFFSET 0.000000 3.402643 0.000000 
		CHANNELS 3 Xrotation Zrotation Yrotation
		JOINT chest
		{
			OFFSET 0.000000 8.438565 -0.680529 
			CHANNELS 3 Xrotation Zrotation Yrotation
			JOINT neck
			{
				OFFSET 0.000000 10.207942 -0.272212 
				CHANNELS 3 Xrotation Zrotation Yrotation
				JOINT head
				{
					OFFSET 0.000000 3.130431 0.000000 
					CHANNELS 3 Xrotation Zrotation Yrotation
					End Site
					{
						OFFSET 0.000000 3.130435 0.000000 
					}
				}
			}
			JOINT lCollar
			{
				OFFSET 3.470700 6.669187 -0.816635 
				CHANNELS 3 Yrotation Zrotation Xrotation
				JOINT lShldr
				{
					OFFSET 3.198488 0.000000 0.000000 
					CHANNELS 3 Zrotation Yrotation Xrotation
					JOINT lForeArm
					{
						OFFSET 10.139888 0.000000 0.000000 
						CHANNELS 3 Yrotation Zrotation Xrotation
						JOINT lHand
						{
							OFFSET 8.370511 0.000000 0.000000 
							CHANNELS 3 Zrotation Yrotation Xrotation
							End Site
							{
								OFFSET 4.083176 0.000000 0.000000 
							}
						}
					}
				}
			}
			JOINT rCollar
			{
				OFFSET -3.470700 6.669187 -0.816635 
				CHANNELS 3 Yrotation Zrotation Xrotation
				JOINT rShldr
				{
					OFFSET -3.198488 0.000000 0.000000 
					CHANNELS 3 Zrotation Yrotation Xrotation
					JOINT rForeArm
					{
						OFFSET -10.139888 0.000000 0.000000 
						CHANNELS 3 Yrotation Zrotation Xrotation
						JOINT rHand
						{
							OFFSET -8.370511 0.000000 0.000000 
							CHANNELS 3 Zrotation Yrotation Xrotation
							End Site
							{
								OFFSET -4.083176 0.000000 0.000000 
							}
						}
					}
				}
			}
		}
	}
	JOINT lThigh
	{
		OFFSET 5.308129 -1.633274 1.361059 
		CHANNELS 3 Xrotation Zrotation Yrotation
		JOINT lShin
		{
			OFFSET -2.041588 -20.007561 0.000000 
			CHANNELS 3 Xrotation Zrotation Yrotation
			JOINT lFoot
			{
				OFFSET 0.000000 -19.190928 -1.224953 
				CHANNELS 3 Xrotation Yrotation Zrotation
				End Site
				{
					OFFSET 0.000000 -2.449906 4.627600 
				}
			}
		}
	}
	JOINT rThigh
	{
		OFFSET -5.308129 -1.633274 1.361059 
		CHANNELS 3 Xrotation Zrotation Yrotation
		JOINT rShin
		{
			OFFSET 2.041588 -20.007561 0.000000 
			CHANNELS 3 Xrotation Zrotation Yrotation
			JOINT rFoot
			{
				OFFSET 0.000000 -19.190928 -1.224953 
				CHANNELS 3 Xrotation Yrotation Zrotation
				End Site
				{
					OFFSET 0.000000 -2.449906 4.627600 
				}
			}
		}
	}
}
MOTION
Frames: 8
Frame Time: 0.016667
8.915988 30.338209 -17.178953 -4.338912 -16.539135 -15.644062 40.799038 24.504372 -1.512571 3.929953 -1.640616 0.829998 -7.609885 -6.363226 0.767715 6.194193 1.576088 -26.289814 -21.265192 -8.727492 -0.460675 -70.149933 13.191052 -33.547314 -77.875702 -5.000000 2.193628 7.220265 -1.493599 -45.000000 12.833697 2.419011 -0.132705 67.138351 26.152699 22.755526 81.199081 5.000000 5.289365 7.663022 -17.971466 -33.559723 -76.272591 16.221333 -20.372614 121.444290 2.548866 -3.881715 -33.826679 9.635009 -1.996005 6.535644 -5.700125 -32.688717 116.417801 -3.318239 5.857440 -68.352974 -15.416089 -11.211814 
8.860570 30.382044 -17.170753 -3.940265 -17.089355 -17.332106 40.580643 24.557037 -1.558060 3.991593 -1.494139 0.654264 -7.102997 -5.913838 0.669232 6.654356 1.366876 -25.447075 -21.332523 -8.600702 -0.454131 -70.030052 13.358298 -33.487057 -78.440887 -5.000000 2.015813 6.743102 -1.088575 -45.000000 12.296944 2.565390 -0.140303 67.547302 26.413748 23.517223 81.245689 5.000000 5.205683 7.789158 -17.895247 -33.811161 -76.290382 17.256819 -21.633617 121.587257 2.392439 -3.629251 -33.570564 9.959306 -2.372003 7.093569 -6.355265 -33.244915 116.323257 -3.289425 5.795790 -68.557487 -15.339068 -11.884809 
8.767544 30.400721 -17.176256 -3.536615 -17.608086 -18.998312 40.358784 24.596586 -1.621832 4.062728 -1.337891 0.468527 -6.587457 -5.474093 0.572272 7.112045 1.145323 -24.614481 -21.390020 -8.464161 -0.447082 -69.904045 13.524903 -33.436283 -78.994041 -5.000000 1.850006 6.285994 -0.693546 -45.000000 11.750469 2.721522 -0.148405 67.977448 26.658598 24.291885 81.278961 5.000000 5.129580 7.912080 -17.808889 -34.072231 -76.349930 18.252460 -22.894562 121.780388 2.224659 -3.363874 -33.262318 10.342100 -2.755828 7.650654 -7.009205 -33.818027 116.236885 -3.250580 5.787240 -68.739143 -15.233051 -12.550323 
8.635198 30.391500 -17.198017 -3.210043 -18.043566 -20.526098 40.116993 24.606897 -1.771885 4.143445 -1.181637 0.273265 -6.034687 -5.032875 0.485003 7.516679 0.938544 -23.753338 -21.408476 -8.327625 -0.440033 -69.790703 13.692697 -33.405079 -79.562500 -5.000000 1.696748 5.915479 -0.344708 -45.000000 11.203960 2.858150 -0.155495 68.435379 26.903811 25.087217 81.275597 5.000000 5.045647 8.057412 -17.685101 -34.367825 -76.419891 19.209661 -24.240553 121.988792 2.099381 -3.170504 -33.046463 10.655066 -3.199513 8.212226 -7.656476 -34.575035 116.341110 -3.293323 5.837864 -68.694771 -15.157950 -13.158128 
8.462334 30.351238 -17.238869 -2.884966 -18.460398 -22.029095 39.860909 24.603714 -1.940647 4.213925 -1.035145 0.068228 -5.483519 -4.590186 0.408234 7.918755 0.719723 -22.892517 -21.417109 -8.181338 -0.432478 -69.677467 13.851275 -33.376751 -80.119240 -5.000000 1.554784 5.571577 0.003636 -45.000000 10.657472 2.994777 -0.162583 68.911385 27.140137 25.893290 81.247871 5.000000 4.974051 8.201574 -17.560349 -34.660179 -76.501251 20.156422 -25.615879 122.196770 1.982316 -2.983584 -32.861965 10.901493 -3.688968 8.766620 -8.319061 -35.361897 116.444382 -3.375746 5.882699 -68.579353 -15.078474 -13.718171 
8.259104 30.279057 -17.302826 -2.605174 -18.821405 -23.516375 39.640293 24.520891 -2.094511 4.293252 -0.878885 -0.127056 -4.933085 -4.157149 0.332890 8.290049 0.461806 -21.992933 -21.425692 -8.025300 -0.423054 -69.582016 13.992667 -33.324970 -80.634125 -5.000000 1.437233 5.233047 0.360717 -45.000000 10.101147 3.102149 -0.168154 69.407211 27.362219 26.680311 81.216545 5.000000 4.932302 8.379123 -17.436586 -34.984299 -76.614494 21.104429 -27.033974 122.403603 1.855056 -2.844630 -32.627811 11.188071 -4.177997 9.232998 -8.894855 -36.030682 116.705269 -3.406855 5.936527 -68.446465 -15.025861 -14.323145 
8.023420 30.174965 -17.388506 -2.368384 -19.129007 -24.972248 39.469414 24.371906 -2.218507 4.371553 -0.712863 -0.302817 -4.393696 -3.722647 0.266518 8.628228 0.164035 -21.064531 -21.453539 -7.830247 -0.413004 -69.498207 14.125537 -33.251698 -81.107414 -5.000000 1.341302 4.908840 0.727450 -45.000000 9.525210 3.180267 -0.172210 69.937698 27.566967 27.441244 81.169861 5.000000 4.931693 8.604073 -17.326385 -35.317673 -76.738113 22.042330 -28.460239 122.638229 1.780024 -2.684541 -32.382126 11.478019 -4.715233 9.616873 -9.403501 -36.571629 117.086815 -3.436192 5.900597 -68.246918 -15.006899 -14.939966 
7.762995 30.039705 -17.503618 -2.129384 -19.425226 -26.424320 39.307114 24.207237 -2.345504 4.449336 -0.556609 -0.468816 -3.864607 -3.297798 0.202298 8.960041 -0.146699 -20.136803 -21.481491 -7.644949 -0.403454 -69.420303 14.249475 -33.171646 -81.560059 -5.000000 1.251334 4.598664 1.101390 -45.000000 8.959044 3.258382 -0.176265 70.455208 27.775114 28.200378 81.121559 5.000000 4.924646 8.821297 -17.194283 -35.639511 -76.881897 22.978828 -29.912769 122.852196 1.699018 -2.563766 -32.171677 11.723722 -5.220886 9.947798 -9.843137 -37.093216 117.507530 -3.455806 5.870975 -68.070709 -15.051207 -15.595078 
